<svg xmlns="http://www.w3.org/2000/svg" xmlns:xlink="http://www.w3.org/1999/xlink" xmlns:lucid="lucid" width="2620.99" height="1934.62"><g transform="translate(0 0)" lucid:page-tab-id="HWEp-vi-RSFO"><path d="M1050 40h300v183h-300z" stroke="#333" stroke-width="2" fill="#fff"/><use xlink:href="#a" transform="matrix(1,0,0,1,1058,48) translate(69.01944444444469 89.76666666666665)"/><path d="M450 440h300v183H450z" stroke="#333" stroke-width="2" fill="#fff"/><use xlink:href="#b" transform="matrix(1,0,0,1,458,448) translate(4.089814814815242 89.76666666666665)"/><path d="M750 960h300v183H750z" stroke="#333" stroke-width="2" fill="#fff"/><use xlink:href="#c" transform="matrix(1,0,0,1,758,968) translate(38.600000000000335 89.76666666666665)"/><path d="M150 960h300v183H150z" stroke="#333" stroke-width="2" fill="#fff"/><use xlink:href="#d" transform="matrix(1,0,0,1,158,968) translate(21.236111111111498 89.76666666666665)"/><path d="M1650 440h300v183h-300z" stroke="#333" stroke-width="2" fill="#fff"/><use xlink:href="#e" transform="matrix(1,0,0,1,1658,448) translate(19.80000000000038 89.76666666666665)"/><path d="M1950 960h300v183h-300z" stroke="#333" stroke-width="2" fill="#fff"/><use xlink:href="#f" transform="matrix(1,0,0,1,1958,968) translate(83.07592592592613 89.76666666666665)"/><path d="M1350 960h300v183h-300z" stroke="#333" stroke-width="2" fill="#fff"/><use xlink:href="#g" transform="matrix(1,0,0,1,1358,968) translate(57.225925925926205 89.76666666666665)"/><path d="M347 1386h133v214H120v-240h216zm-227 0h227" stroke="#333" stroke-width="2" fill="#fff"/><use xlink:href="#h" transform="matrix(1,0,0,1,128,1360) translate(0 17.955555555555552)"/><path d="M1950 1360h300v183h-300z" stroke="#333" stroke-width="2" fill="#fff"/><use xlink:href="#i" transform="matrix(1,0,0,1,1958,1368) translate(46.38981481481511 89.76666666666665)"/><path d="M1650 1700h300v183h-300z" stroke="#333" stroke-width="2" fill="#fff"/><use xlink:href="#j" transform="matrix(1,0,0,1,1658,1708) translate(63.18796296296321 89.76666666666665)"/><path d="M2250 1700h300v183h-300z" stroke="#333" stroke-width="2" fill="#fff"/><use xlink:href="#k" transform="matrix(1,0,0,1,2258,1708) translate(51.916666666666956 89.76666666666665)"/><path d="M1800 1697.5v-64c0-6.63 5.37-12 12-12h276c6.63 0 12-5.37 12-12v-39.53" stroke="#333" stroke-width="3" fill="none"/><path d="M1801.5 1699h-3v-1.54h3z" fill="#333"/><path d="M2100 1546.95l12.73 21.52h-25.46z" stroke="#333" stroke-width="3" fill="#fff"/><path d="M2400 1697.5v-64c0-6.63-5.37-12-12-12h-276c-6.63 0-12-5.37-12-12v-39.53" stroke="#333" stroke-width="3" fill="none"/><path d="M2401.5 1699h-3v-1.54h3z" fill="#333"/><path d="M2100 1546.95l12.73 21.52h-25.46z" stroke="#333" stroke-width="3" fill="#fff"/><path d="M2100 1357.5v-210.77" stroke="#333" stroke-width="3" fill="none"/><path d="M2101.5 1359h-3v-1.54h3z" fill="#333"/><path d="M2110.18 1164.16l-10.18-17.2-10.18 17.2" stroke="#333" stroke-width="3" fill="none"/><path d="M300 1357v-209.36" stroke="#333" stroke-width="4" fill="none"/><path d="M302 1359h-4v-2.05h4z" fill="#333"/><path d="M310.18 1165.14l-10.18-17.2-10.18 17.2" stroke="#333" stroke-width="4" fill="none"/><path d="M2100 957.5v-154c0-6.63-5.37-12-12-12h-276c-6.63 0-12-5.37-12-12V649.97" stroke="#333" stroke-width="3" fill="none"/><path d="M2101.5 959h-3v-1.54h3z" fill="#333"/><path d="M1800 626.95l12.73 21.52h-25.46z" stroke="#333" stroke-width="3" fill="#fff"/><path d="M1500 957.5v-154c0-6.63 5.37-12 12-12h276c6.63 0 12-5.37 12-12V649.97" stroke="#333" stroke-width="3" fill="none"/><path d="M1501.5 959h-3v-1.54h3z" fill="#333"/><path d="M1800 626.95l12.73 21.52h-25.46z" stroke="#333" stroke-width="3" fill="#fff"/><path d="M900 957.5v-154c0-6.63-5.37-12-12-12H612c-6.63 0-12-5.37-12-12V649.97" stroke="#333" stroke-width="3" fill="none"/><path d="M901.5 959h-3v-1.54h3z" fill="#333"/><path d="M600 626.95l12.73 21.52h-25.46z" stroke="#333" stroke-width="3" fill="#fff"/><path d="M300 957.5v-154c0-6.63 5.37-12 12-12h276c6.63 0 12-5.37 12-12V649.97" stroke="#333" stroke-width="3" fill="none"/><path d="M301.5 959h-3v-1.54h3z" fill="#333"/><path d="M600 626.95l12.73 21.52h-25.46z" stroke="#333" stroke-width="3" fill="#fff"/><path d="M600 436.27V343.5c0-6.63 5.37-12 12-12h576c6.63 0 12-5.37 12-12v-64.38" stroke="#333" stroke-width="3" fill="none"/><path d="M589.82 418.84l10.18 17.2 10.18-17.2" stroke="#333" stroke-width="3" fill="none"/><path d="M1200 226.12l14.85 14.85-14.85 15.15-14.85-15.15z" stroke="#333" stroke-width="3" fill="#333"/><path d="M1800 436.27V343.5c0-6.63-5.37-12-12-12h-576c-6.63 0-12-5.37-12-12v-64.38" stroke="#333" stroke-width="3" fill="none"/><path d="M1789.82 418.84l10.18 17.2 10.18-17.2" stroke="#333" stroke-width="3" fill="none"/><path d="M1200 226.12l14.85 14.85-14.85 15.15-14.85-15.15z" stroke="#333" stroke-width="3" fill="#333"/><path d="M1050 440h300v183h-300z" stroke="#333" stroke-width="2" fill="#fff"/><use xlink:href="#l" transform="matrix(1,0,0,1,1058,448) translate(53.35277777777806 89.76666666666665)"/><path d="M1200 436.27V255.13M1189.82 418.84l10.18 17.2 10.18-17.2" stroke="#333" stroke-width="3" fill="none"/><path d="M1200 226.12l14.85 14.85-14.85 15.15-14.85-15.15z" stroke="#333" stroke-width="3" fill="#333"/><defs><path fill="#333" d="M67-125c0 53 21 87 73 88 37 1 54-22 65-47l45 17C233-25 199 4 140 4 58 4 20-42 15-125 8-235 124-281 211-232c18 10 29 29 36 50l-46 12c-8-25-30-41-62-41-52 0-71 34-72 86" id="m"/><path fill="#333" d="M114-157C55-157 80-60 75 0H25v-261h50l-1 109c12-26 28-41 61-42 86-1 58 113 63 194h-50c-7-57 23-157-34-157" id="n"/><path fill="#333" d="M133-34C117-15 103 5 69 4 32 3 11-16 11-54c-1-60 55-63 116-61 1-26-3-47-28-47-18 1-26 9-28 27l-52-2c7-38 36-58 82-57s74 22 75 68l1 82c-1 14 12 18 25 15v27c-30 8-71 5-69-32zm-48 3c29 0 43-24 42-57-32 0-66-3-65 30 0 17 8 27 23 27" id="o"/><path fill="#333" d="M135-150c-39-12-60 13-60 57V0H25l-1-190h47c2 13-1 29 3 40 6-28 27-53 61-41v41" id="p"/><path fill="#333" d="M190-63c-7 42-38 67-86 67-59 0-84-38-90-98-12-110 154-137 174-36l-49 2c-2-19-15-32-35-32-30 0-35 28-38 64-6 74 65 87 74 30" id="q"/><path fill="#333" d="M115-3C79 11 28 4 28-45v-112H4v-33h27l15-45h31v45h36v33H77v99c-1 23 16 31 38 25v30" id="r"/><path fill="#333" d="M185-48c-13 30-37 53-82 52C43 2 14-33 14-96s30-98 90-98c62 0 83 45 84 108H66c0 31 8 55 39 56 18 0 30-7 34-22zm-45-69c5-46-57-63-70-21-2 6-4 13-4 21h74" id="s"/><g id="a"><use transform="matrix(0.08703703703703676,0,0,0.08703703703703676,0,0)" xlink:href="#m"/><use transform="matrix(0.08703703703703676,0,0,0.08703703703703676,22.54259259259252,0)" xlink:href="#n"/><use transform="matrix(0.08703703703703676,0,0,0.08703703703703676,41.60370370370357,0)" xlink:href="#o"/><use transform="matrix(0.08703703703703676,0,0,0.08703703703703676,59.01111111111092,0)" xlink:href="#p"/><use transform="matrix(0.08703703703703676,0,0,0.08703703703703676,71.19629629629607,0)" xlink:href="#o"/><use transform="matrix(0.08703703703703676,0,0,0.08703703703703676,88.60370370370342,0)" xlink:href="#q"/><use transform="matrix(0.08703703703703676,0,0,0.08703703703703676,106.01111111111078,0)" xlink:href="#r"/><use transform="matrix(0.08703703703703676,0,0,0.08703703703703676,116.36851851851814,0)" xlink:href="#s"/><use transform="matrix(0.08703703703703676,0,0,0.08703703703703676,133.7759259259255,0)" xlink:href="#p"/></g><path fill="#333" d="M52-101C46-14 166-7 216-51l9-45h-74l6-28h105l-18 87C217-12 181 4 130 4 60 4 18-31 18-101c0-106 78-167 188-146 30 6 48 27 59 54l-34 9c-10-26-31-41-67-40-75 1-107 50-112 123" id="t"/><path fill="#333" d="M66-151c12-25 30-51 66-40l-6 26C45-176 58-65 38 0H6l36-190h30" id="u"/><path fill="#333" d="M165-48c-4 18 1 34 23 27l-3 20c-29 8-62 0-52-35h-2C116-14 99 4 63 4 30 4 8-16 8-49c0-68 71-67 138-67 10-26 0-56-31-54-26 1-42 9-47 31l-32-5c8-67 160-71 144 15-5 28-9 54-15 81zM42-50c3 52 80 24 89-6 7-12 7-24 11-38-47 1-103-4-100 44" id="v"/><path fill="#333" d="M89 0H52L20-190h33L74-25l89-165h34" id="w"/><path fill="#333" d="M50-231l6-30h32l-6 30H50zM6 0l37-190h31L37 0H6" id="x"/><path fill="#333" d="M51-54c-9 22 5 41 31 30L79-1C43 14 10-4 19-52l22-115H19l5-23h22l19-43h21l-9 43h35l-4 23H73" id="y"/><path fill="#333" d="M198-190L69 30C53 58 25 83-20 72c4-11-1-27 19-22 33-1 43-29 59-52L20-190h32L79-34l84-156h35" id="z"/><path fill="#333" d="M125-24c46 0 70-25 89-51l25 16C214-24 183 4 123 4 8 4-5-146 60-208c32-50 158-61 191-5 5 7 9 14 11 22l-32 10c-9-28-33-43-69-43-74 0-108 51-108 125 0 46 24 75 72 75" id="A"/><path fill="#333" d="M67-158c15-20 31-36 64-36 94 0 33 127 27 194h-32l25-140c3-38-53-32-70-12C52-117 51-51 37 0H6l51-261h31" id="B"/><path fill="#333" d="M67-158c22-48 132-52 116 29L158 0h-32l25-140c3-38-53-32-70-12C52-117 51-52 38 0H6l36-190h30" id="C"/><path fill="#333" d="M103-194c29 0 47 14 56 36 2-11 5-23 8-32h30L160-5C157 61 82 97 21 62 9 55 4 45 1 30l28-7c7 42 83 31 92-3 4-16 9-38 13-55-13 20-29 36-62 36-40 0-60-25-60-64 0-71 23-131 91-131zm4 24c-53 0-58 54-61 104-2 27 10 44 36 44 49 0 65-50 67-102 1-29-15-46-42-46" id="D"/><path fill="#333" d="M111-194c62-3 86 47 72 106H45c-7 38 6 69 45 68 27-1 43-14 53-32l24 11C152-15 129 4 87 4 38 3 12-23 12-71c0-70 32-119 99-123zm44 81c14-66-71-72-95-28-4 8-8 17-11 28h106" id="E"/><path fill="#333" d="M151-220L108 0H75l42-220H32l6-28h203l-5 28h-85" id="F"/><path fill="#333" d="M67-162c32-53 139-36 121 50C175-51 163 2 97 4 68 4 52-11 42-31 38 6 28 39 22 75H-9l50-265h29c-1 10 0 20-3 28zm89 36c0-26-10-43-35-43-54 0-67 50-69 103-1 29 14 45 42 46 53 0 62-58 62-106" id="G"/><g id="b"><use transform="matrix(0.08703703703703676,0,0,0.08703703703703676,0,0)" xlink:href="#t"/><use transform="matrix(0.08703703703703676,0,0,0.08703703703703676,24.370370370370292,0)" xlink:href="#u"/><use transform="matrix(0.08703703703703676,0,0,0.08703703703703676,34.72777777777767,0)" xlink:href="#v"/><use transform="matrix(0.08703703703703676,0,0,0.08703703703703676,52.13518518518502,0)" xlink:href="#w"/><use transform="matrix(0.08703703703703676,0,0,0.08703703703703676,67.80185185185164,0)" xlink:href="#x"/><use transform="matrix(0.08703703703703676,0,0,0.08703703703703676,74.67777777777754,0)" xlink:href="#y"/><use transform="matrix(0.08703703703703676,0,0,0.08703703703703676,83.38148148148122,0)" xlink:href="#z"/><use transform="matrix(0.08703703703703676,0,0,0.08703703703703676,99.04814814814783,0)" xlink:href="#A"/><use transform="matrix(0.08703703703703676,0,0,0.08703703703703676,121.59074074074036,0)" xlink:href="#B"/><use transform="matrix(0.08703703703703676,0,0,0.08703703703703676,138.99814814814772,0)" xlink:href="#v"/><use transform="matrix(0.08703703703703676,0,0,0.08703703703703676,156.40555555555508,0)" xlink:href="#C"/><use transform="matrix(0.08703703703703676,0,0,0.08703703703703676,173.81296296296244,0)" xlink:href="#D"/><use transform="matrix(0.08703703703703676,0,0,0.08703703703703676,191.2203703703698,0)" xlink:href="#E"/><use transform="matrix(0.08703703703703676,0,0,0.08703703703703676,208.62777777777714,0)" xlink:href="#F"/><use transform="matrix(0.08703703703703676,0,0,0.08703703703703676,225.33888888888822,0)" xlink:href="#z"/><use transform="matrix(0.08703703703703676,0,0,0.08703703703703676,241.00555555555488,0)" xlink:href="#G"/><use transform="matrix(0.08703703703703676,0,0,0.08703703703703676,258.4129629629622,0)" xlink:href="#E"/></g><path fill="#333" d="M169-182c-1-43-94-46-97-3 18 66 151 10 154 114 3 95-165 93-204 36-6-8-10-19-12-30l50-8c3 46 112 56 116 5-17-69-150-10-154-114-4-87 153-88 188-35 5 8 8 18 10 28" id="H"/><path fill="#333" d="M231 0h-52l-39-155L100 0H48L-1-190h46L77-45c9-52 24-97 36-145h53l37 145 32-145h46" id="I"/><path fill="#333" d="M25-224v-37h50v37H25zM25 0v-190h50V0H25" id="J"/><path fill="#333" d="M135-194c53 0 70 44 70 98 0 56-19 98-73 100-31 1-45-17-59-34 3 33 2 69 2 105H25l-1-265h48c2 10 0 23 3 31 11-24 29-35 60-35zM114-30c33 0 39-31 40-66 0-38-9-64-40-64-56 0-55 130 0 130" id="K"/><path fill="#333" d="M186 0v-106H76V0H24v-248h52v99h110v-99h50V0h-50" id="L"/><path fill="#333" d="M135-194c87-1 58 113 63 194h-50c-7-57 23-157-34-157-59 0-34 97-39 157H25l-1-190h47c2 12-1 28 3 38 12-26 28-41 61-42" id="M"/><path fill="#333" d="M88-194c31-1 46 15 58 34l-1-101h50l1 261h-48c-2-10 0-23-3-31C134-8 116 4 84 4 32 4 16-41 15-95c0-56 19-97 73-99zm17 164c33 0 40-30 41-66 1-37-9-64-41-64s-38 30-39 65c0 43 13 65 39 65" id="N"/><path fill="#333" d="M25 0v-261h50V0H25" id="O"/><g id="c"><use transform="matrix(0.08703703703703676,0,0,0.08703703703703676,0,0)" xlink:href="#H"/><use transform="matrix(0.08703703703703676,0,0,0.08703703703703676,20.888888888888822,0)" xlink:href="#I"/><use transform="matrix(0.08703703703703676,0,0,0.08703703703703676,45.2592592592591,0)" xlink:href="#J"/><use transform="matrix(0.08703703703703676,0,0,0.08703703703703676,53.962962962962784,0)" xlink:href="#K"/><use transform="matrix(0.08703703703703676,0,0,0.08703703703703676,73.02407407407384,0)" xlink:href="#s"/><use transform="matrix(0.08703703703703676,0,0,0.08703703703703676,90.4314814814812,0)" xlink:href="#L"/><use transform="matrix(0.08703703703703676,0,0,0.08703703703703676,112.97407407407371,0)" xlink:href="#o"/><use transform="matrix(0.08703703703703676,0,0,0.08703703703703676,130.38148148148107,0)" xlink:href="#M"/><use transform="matrix(0.08703703703703676,0,0,0.08703703703703676,149.44259259259212,0)" xlink:href="#N"/><use transform="matrix(0.08703703703703676,0,0,0.08703703703703676,168.50370370370317,0)" xlink:href="#O"/><use transform="matrix(0.08703703703703676,0,0,0.08703703703703676,177.20740740740683,0)" xlink:href="#s"/><use transform="matrix(0.08703703703703676,0,0,0.08703703703703676,194.6148148148142,0)" xlink:href="#p"/></g><path fill="#333" d="M176-78C186 10 51 31 16-35c-5-9-9-19-11-32l52-8c4 21 12 37 35 38 23 0 32-16 32-40v-130H75v-41h101v170" id="P"/><path fill="#333" d="M110-194c64 0 96 36 96 99 0 64-35 99-97 99-61 0-95-36-95-99 0-62 34-99 96-99zm-1 164c35 0 45-28 45-65 0-40-10-65-43-65-34 0-45 26-45 65 0 36 10 65 43 65" id="Q"/><path fill="#333" d="M123 10C108 53 80 86 19 72V37c35 8 53-11 59-39L3-190h52l48 148c12-52 28-100 44-148h51" id="R"/><path fill="#333" d="M137-138c1-29-70-34-71-4 15 46 118 7 119 86 1 83-164 76-172 9l43-7c4 19 20 25 44 25 33 8 57-30 24-41C81-84 22-81 20-136c-2-80 154-74 161-7" id="S"/><path fill="#333" d="M147 0L96-86 75-71V0H25v-261h50v150l67-79h53l-66 74L201 0h-54" id="T"/><g id="d"><use transform="matrix(0.08703703703703676,0,0,0.08703703703703676,0,0)" xlink:href="#P"/><use transform="matrix(0.08703703703703676,0,0,0.08703703703703676,17.40740740740735,0)" xlink:href="#Q"/><use transform="matrix(0.08703703703703676,0,0,0.08703703703703676,36.4685185185184,0)" xlink:href="#R"/><use transform="matrix(0.08703703703703676,0,0,0.08703703703703676,53.875925925925756,0)" xlink:href="#S"/><use transform="matrix(0.08703703703703676,0,0,0.08703703703703676,71.2833333333331,0)" xlink:href="#r"/><use transform="matrix(0.08703703703703676,0,0,0.08703703703703676,81.64074074074048,0)" xlink:href="#J"/><use transform="matrix(0.08703703703703676,0,0,0.08703703703703676,90.34444444444415,0)" xlink:href="#q"/><use transform="matrix(0.08703703703703676,0,0,0.08703703703703676,107.75185185185151,0)" xlink:href="#T"/><use transform="matrix(0.08703703703703676,0,0,0.08703703703703676,125.15925925925886,0)" xlink:href="#L"/><use transform="matrix(0.08703703703703676,0,0,0.08703703703703676,147.7018518518514,0)" xlink:href="#o"/><use transform="matrix(0.08703703703703676,0,0,0.08703703703703676,165.10925925925875,0)" xlink:href="#M"/><use transform="matrix(0.08703703703703676,0,0,0.08703703703703676,184.1703703703698,0)" xlink:href="#N"/><use transform="matrix(0.08703703703703676,0,0,0.08703703703703676,203.23148148148084,0)" xlink:href="#O"/><use transform="matrix(0.08703703703703676,0,0,0.08703703703703676,211.9351851851845,0)" xlink:href="#s"/><use transform="matrix(0.08703703703703676,0,0,0.08703703703703676,229.34259259259187,0)" xlink:href="#p"/></g><path fill="#333" d="M222 0l43-216c-8 16-17 34-26 49L143 0h-22L81-216 41 0H11l48-248h42l38 208 116-208h45L252 0h-30" id="U"/><path fill="#333" d="M30-147c31-64 166-65 159 27C183-49 158 1 86 4 9 8 1-88 30-147zM88-20c53 0 68-48 68-100 0-31-11-51-44-50-52 1-68 46-68 97 0 32 13 53 44 53" id="V"/><path fill="#333" d="M6 0l50-261h32L37 0H6" id="W"/><g id="e"><use transform="matrix(0.08703703703703676,0,0,0.08703703703703676,0,0)" xlink:href="#U"/><use transform="matrix(0.08703703703703676,0,0,0.08703703703703676,26.02407407407399,0)" xlink:href="#V"/><use transform="matrix(0.08703703703703676,0,0,0.08703703703703676,43.43148148148134,0)" xlink:href="#w"/><use transform="matrix(0.08703703703703676,0,0,0.08703703703703676,59.09814814814796,0)" xlink:href="#E"/><use transform="matrix(0.08703703703703676,0,0,0.08703703703703676,76.5055555555553,0)" xlink:href="#A"/><use transform="matrix(0.08703703703703676,0,0,0.08703703703703676,99.04814814814782,0)" xlink:href="#V"/><use transform="matrix(0.08703703703703676,0,0,0.08703703703703676,116.45555555555516,0)" xlink:href="#C"/><use transform="matrix(0.08703703703703676,0,0,0.08703703703703676,133.8629629629625,0)" xlink:href="#y"/><use transform="matrix(0.08703703703703676,0,0,0.08703703703703676,142.56666666666618,0)" xlink:href="#u"/><use transform="matrix(0.08703703703703676,0,0,0.08703703703703676,152.92407407407356,0)" xlink:href="#V"/><use transform="matrix(0.08703703703703676,0,0,0.08703703703703676,170.33148148148092,0)" xlink:href="#W"/><use transform="matrix(0.08703703703703676,0,0,0.08703703703703676,177.20740740740683,0)" xlink:href="#F"/><use transform="matrix(0.08703703703703676,0,0,0.08703703703703676,193.9185185185179,0)" xlink:href="#z"/><use transform="matrix(0.08703703703703676,0,0,0.08703703703703676,209.5851851851845,0)" xlink:href="#G"/><use transform="matrix(0.08703703703703676,0,0,0.08703703703703676,226.99259259259188,0)" xlink:href="#E"/></g><path fill="#333" d="M182-130c37 4 62 22 62 59C244 23 116-4 24 0v-248c84 5 203-23 205 63 0 31-19 50-47 55zM76-148c40-3 101 13 101-30 0-44-60-28-101-31v61zm0 110c48-3 116 14 116-37 0-48-69-32-116-35v72" id="X"/><path fill="#333" d="M85 4C-2 5 27-109 22-190h50c7 57-23 150 33 157 60-5 35-97 40-157h50l1 190h-47c-2-12 1-28-3-38-12 25-28 42-61 42" id="Y"/><g id="f"><use transform="matrix(0.08703703703703676,0,0,0.08703703703703676,0,0)" xlink:href="#X"/><use transform="matrix(0.08703703703703676,0,0,0.08703703703703676,22.54259259259252,0)" xlink:href="#Y"/><use transform="matrix(0.08703703703703676,0,0,0.08703703703703676,41.60370370370357,0)" xlink:href="#r"/><use transform="matrix(0.08703703703703676,0,0,0.08703703703703676,51.961111111110945,0)" xlink:href="#r"/><use transform="matrix(0.08703703703703676,0,0,0.08703703703703676,62.31851851851832,0)" xlink:href="#Q"/><use transform="matrix(0.08703703703703676,0,0,0.08703703703703676,81.37962962962936,0)" xlink:href="#M"/><use transform="matrix(0.08703703703703676,0,0,0.08703703703703676,100.4407407407404,0)" xlink:href="#S"/></g><path fill="#333" d="M136-208V0H84v-208H4v-40h212v40h-80" id="Z"/><g id="g"><use transform="matrix(0.08703703703703676,0,0,0.08703703703703676,0,0)" xlink:href="#Z"/><use transform="matrix(0.08703703703703676,0,0,0.08703703703703676,16.71111111111106,0)" xlink:href="#o"/><use transform="matrix(0.08703703703703676,0,0,0.08703703703703676,34.118518518518414,0)" xlink:href="#K"/><use transform="matrix(0.08703703703703676,0,0,0.08703703703703676,53.17962962962946,0)" xlink:href="#L"/><use transform="matrix(0.08703703703703676,0,0,0.08703703703703676,75.72222222222197,0)" xlink:href="#o"/><use transform="matrix(0.08703703703703676,0,0,0.08703703703703676,93.12962962962932,0)" xlink:href="#M"/><use transform="matrix(0.08703703703703676,0,0,0.08703703703703676,112.19074074074037,0)" xlink:href="#N"/><use transform="matrix(0.08703703703703676,0,0,0.08703703703703676,131.25185185185143,0)" xlink:href="#O"/><use transform="matrix(0.08703703703703676,0,0,0.08703703703703676,139.9555555555551,0)" xlink:href="#s"/><use transform="matrix(0.08703703703703676,0,0,0.08703703703703676,157.36296296296246,0)" xlink:href="#p"/></g><path fill="#333" d="M24-248c93 1 206-16 204 79-1 75-69 88-152 82V0H24v-248zm52 121c47 0 100 7 100-41 0-47-54-39-100-39v80" id="aa"/><g id="h"><use transform="matrix(0.06234567901234567,0,0,0.06234567901234567,0,0)" xlink:href="#P"/><use transform="matrix(0.06234567901234567,0,0,0.06234567901234567,12.469135802469133,0)" xlink:href="#Q"/><use transform="matrix(0.06234567901234567,0,0,0.06234567901234567,26.122839506172834,0)" xlink:href="#R"/><use transform="matrix(0.06234567901234567,0,0,0.06234567901234567,38.59197530864196,0)" xlink:href="#S"/><use transform="matrix(0.06234567901234567,0,0,0.06234567901234567,51.061111111111096,0)" xlink:href="#r"/><use transform="matrix(0.06234567901234567,0,0,0.06234567901234567,58.48024691358023,0)" xlink:href="#J"/><use transform="matrix(0.06234567901234567,0,0,0.06234567901234567,64.7148148148148,0)" xlink:href="#q"/><use transform="matrix(0.06234567901234567,0,0,0.06234567901234567,77.18395061728393,0)" xlink:href="#T"/><use transform="matrix(0.06234567901234567,0,0,0.06234567901234567,89.65308641975307,0)" xlink:href="#aa"/><use transform="matrix(0.06234567901234567,0,0,0.06234567901234567,104.61604938271603,0)" xlink:href="#o"/><use transform="matrix(0.06234567901234567,0,0,0.06234567901234567,117.08518518518517,0)" xlink:href="#q"/><use transform="matrix(0.06234567901234567,0,0,0.06234567901234567,129.5543209876543,0)" xlink:href="#T"/></g><path fill="#333" d="M219-77C219 17 104-2 11 0l48-248c73 2 169-15 169 57 0 38-24 54-60 60 29 5 51 21 51 54zm-26-111c0-44-62-31-105-33l-16 79c55 0 121 9 121-46zm-7 110c-1-49-69-36-119-38L50-27c61-1 137 12 136-51" id="ab"/><path fill="#333" d="M67 3c-93-2-31-127-26-193h32L48-50c-3 39 53 32 70 12 30-34 30-101 43-152h32L157 0h-30c1-10 6-24 4-33-14 20-29 37-64 36" id="ac"/><g id="i"><use transform="matrix(0.08703703703703676,0,0,0.08703703703703676,0,0)" xlink:href="#A"/><use transform="matrix(0.08703703703703676,0,0,0.08703703703703676,22.54259259259252,0)" xlink:href="#V"/><use transform="matrix(0.08703703703703676,0,0,0.08703703703703676,39.949999999999875,0)" xlink:href="#C"/><use transform="matrix(0.08703703703703676,0,0,0.08703703703703676,57.35740740740722,0)" xlink:href="#y"/><use transform="matrix(0.08703703703703676,0,0,0.08703703703703676,66.0611111111109,0)" xlink:href="#u"/><use transform="matrix(0.08703703703703676,0,0,0.08703703703703676,76.41851851851828,0)" xlink:href="#V"/><use transform="matrix(0.08703703703703676,0,0,0.08703703703703676,93.82592592592563,0)" xlink:href="#W"/><use transform="matrix(0.08703703703703676,0,0,0.08703703703703676,100.70185185185153,0)" xlink:href="#ab"/><use transform="matrix(0.08703703703703676,0,0,0.08703703703703676,121.59074074074036,0)" xlink:href="#ac"/><use transform="matrix(0.08703703703703676,0,0,0.08703703703703676,138.99814814814772,0)" xlink:href="#y"/><use transform="matrix(0.08703703703703676,0,0,0.08703703703703676,147.7018518518514,0)" xlink:href="#y"/><use transform="matrix(0.08703703703703676,0,0,0.08703703703703676,156.40555555555505,0)" xlink:href="#V"/><use transform="matrix(0.08703703703703676,0,0,0.08703703703703676,173.81296296296242,0)" xlink:href="#C"/></g><path fill="#333" d="M24 0v-248h52v208h133V0H24" id="ad"/><path fill="#333" d="M121-226c-27-7-43 5-38 36h38v33H83V0H34v-157H6v-33h28c-9-59 32-81 87-68v32" id="ae"/><g id="j"><use transform="matrix(0.08703703703703676,0,0,0.08703703703703676,0,0)" xlink:href="#ad"/><use transform="matrix(0.08703703703703676,0,0,0.08703703703703676,19.06111111111105,0)" xlink:href="#s"/><use transform="matrix(0.08703703703703676,0,0,0.08703703703703676,36.4685185185184,0)" xlink:href="#ae"/><use transform="matrix(0.08703703703703676,0,0,0.08703703703703676,46.82592592592578,0)" xlink:href="#r"/><use transform="matrix(0.08703703703703676,0,0,0.08703703703703676,57.18333333333314,0)" xlink:href="#X"/><use transform="matrix(0.08703703703703676,0,0,0.08703703703703676,79.72592592592567,0)" xlink:href="#Y"/><use transform="matrix(0.08703703703703676,0,0,0.08703703703703676,98.7870370370367,0)" xlink:href="#r"/><use transform="matrix(0.08703703703703676,0,0,0.08703703703703676,109.14444444444409,0)" xlink:href="#r"/><use transform="matrix(0.08703703703703676,0,0,0.08703703703703676,119.50185185185147,0)" xlink:href="#Q"/><use transform="matrix(0.08703703703703676,0,0,0.08703703703703676,138.56296296296253,0)" xlink:href="#M"/></g><path fill="#333" d="M240-174c0 40-23 61-54 70L253 0h-59l-57-94H76V0H24v-248c93 4 217-23 216 74zM76-134c48-2 112 12 112-38 0-48-66-32-112-35v73" id="af"/><path fill="#333" d="M195-6C206 82 75 100 31 46c-4-6-6-13-8-21l49-6c3 16 16 24 34 25 40 0 42-37 40-79-11 22-30 35-61 35-53 0-70-43-70-97 0-56 18-96 73-97 30 0 46 14 59 34l2-30h47zm-90-29c32 0 41-27 41-63 0-35-9-62-40-62-32 0-39 29-40 63 0 36 9 62 39 62" id="ag"/><g id="k"><use transform="matrix(0.08703703703703676,0,0,0.08703703703703676,0,0)" xlink:href="#af"/><use transform="matrix(0.08703703703703676,0,0,0.08703703703703676,22.54259259259252,0)" xlink:href="#J"/><use transform="matrix(0.08703703703703676,0,0,0.08703703703703676,31.24629629629619,0)" xlink:href="#ag"/><use transform="matrix(0.08703703703703676,0,0,0.08703703703703676,50.30740740740724,0)" xlink:href="#n"/><use transform="matrix(0.08703703703703676,0,0,0.08703703703703676,69.36851851851829,0)" xlink:href="#r"/><use transform="matrix(0.08703703703703676,0,0,0.08703703703703676,79.72592592592567,0)" xlink:href="#X"/><use transform="matrix(0.08703703703703676,0,0,0.08703703703703676,102.26851851851819,0)" xlink:href="#Y"/><use transform="matrix(0.08703703703703676,0,0,0.08703703703703676,121.32962962962924,0)" xlink:href="#r"/><use transform="matrix(0.08703703703703676,0,0,0.08703703703703676,131.68703703703662,0)" xlink:href="#r"/><use transform="matrix(0.08703703703703676,0,0,0.08703703703703676,142.044444444444,0)" xlink:href="#Q"/><use transform="matrix(0.08703703703703676,0,0,0.08703703703703676,161.10555555555504,0)" xlink:href="#M"/></g><path fill="#333" d="M76-208v77h127v40H76V0H24v-248h183v40H76" id="ah"/><g id="l"><use transform="matrix(0.08703703703703676,0,0,0.08703703703703676,0,0)" xlink:href="#H"/><use transform="matrix(0.08703703703703676,0,0,0.08703703703703676,20.888888888888822,0)" xlink:href="#q"/><use transform="matrix(0.08703703703703676,0,0,0.08703703703703676,38.29629629629618,0)" xlink:href="#p"/><use transform="matrix(0.08703703703703676,0,0,0.08703703703703676,50.48148148148132,0)" xlink:href="#s"/><use transform="matrix(0.08703703703703676,0,0,0.08703703703703676,67.88888888888867,0)" xlink:href="#s"/><use transform="matrix(0.08703703703703676,0,0,0.08703703703703676,85.29629629629602,0)" xlink:href="#M"/><use transform="matrix(0.08703703703703676,0,0,0.08703703703703676,104.35740740740708,0)" xlink:href="#ah"/><use transform="matrix(0.08703703703703676,0,0,0.08703703703703676,123.41851851851811,0)" xlink:href="#o"/><use transform="matrix(0.08703703703703676,0,0,0.08703703703703676,140.82592592592547,0)" xlink:href="#N"/><use transform="matrix(0.08703703703703676,0,0,0.08703703703703676,159.88703703703652,0)" xlink:href="#s"/></g></defs></g></svg>